<?xml version="1.0" encoding="utf-8"?>
<!-- Generator: Adobe Illustrator 16.0.0, SVG Export Plug-In . SVG Version: 6.00 Build 0)  -->
<!DOCTYPE svg PUBLIC "-//W3C//DTD SVG 1.1//EN" "http://www.w3.org/Graphics/SVG/1.1/DTD/svg11.dtd">
<svg version="1.1" id="Isolation_Mode" xmlns="http://www.w3.org/2000/svg" xmlns:xlink="http://www.w3.org/1999/xlink" x="0px"
	 y="0px" width="841.89px" height="595.28px" viewBox="0 0 841.89 595.28" style="enable-background:new 0 0 841.89 595.28;"
	 xml:space="preserve">
<g>
	<g>
		<polygon style="fill:#CB8F2B;" points="255.533,366.198 255.533,372.561 265.478,372.561 265.478,375.867 255.533,375.867 
			255.533,384.906 251.843,384.906 251.843,362.859 266.541,362.859 266.51,366.198 		"/>
		<g>
			<path style="fill:#CB8F2B;" d="M289.323,375.682c0,5.724-3.608,9.226-9.539,9.226c-5.93,0-9.569-3.502-9.569-9.226V362.86h3.703
				v12.821c0,3.689,2.29,5.91,5.898,5.91c3.577,0,5.804-2.188,5.804-5.91V362.86h3.703V375.682z"/>
			<path style="fill:#CB8F2B;" d="M304.512,378.23c-0.318,0.03-0.668,0.03-1.017,0.03h-5.277v6.646h-3.751v-22.047h9.028
				c5.689,0,8.963,2.741,8.963,7.528c0,3.526-1.652,6.015-4.609,7.148l4.991,7.37h-4.259L304.512,378.23z M303.495,374.922
				c3.433,0,5.403-1.447,5.403-4.439c0-2.898-1.97-4.284-5.403-4.284h-5.277v8.724H303.495z"/>
			<polygon style="fill:#CB8F2B;" points="333.44,384.906 321.698,369.096 321.698,384.906 317.984,384.906 317.984,362.859 
				321.636,362.859 333.44,378.702 333.44,362.859 337.092,362.859 337.092,384.906 			"/>
			<rect x="343.707" y="362.859" style="fill:#CB8F2B;" width="3.675" height="22.047"/>
			<polygon style="fill:#CB8F2B;" points="362.448,366.198 362.448,384.906 358.738,384.906 358.738,366.198 351.79,366.198 
				351.79,362.859 369.427,362.859 369.427,366.198 			"/>
			<path style="fill:#CB8F2B;" d="M393.68,373.852c0,6.229-4.974,11.056-11.391,11.056s-11.392-4.826-11.392-11.056
				c0-6.259,4.975-10.991,11.392-10.991S393.68,367.624,393.68,373.852 M374.582,373.852c0,4.329,3.531,7.755,7.737,7.755
				s7.646-3.426,7.646-7.755c0-4.328-3.439-7.69-7.646-7.69C378.082,366.161,374.582,369.523,374.582,373.852"/>
			<polygon style="fill:#CB8F2B;" points="416.479,384.906 411.333,367.711 406.125,384.906 402.343,384.906 395.149,362.859 
				399.087,362.859 404.357,380.78 409.597,362.891 413.193,362.859 418.464,380.78 423.703,362.859 427.485,362.859 
				420.231,384.906 			"/>
			<polygon style="fill:#CB8F2B;" points="446.616,384.906 434.875,369.096 434.875,384.906 431.16,384.906 431.16,362.859 
				434.812,362.859 446.616,378.702 446.616,362.859 450.268,362.859 450.268,384.906 			"/>
			<polygon style="fill:#CB8F2B;" points="304.779,406.912 304.779,403.711 300.435,403.711 300.435,406.912 299.612,406.912 
				299.612,399.637 300.435,399.637 300.435,402.921 304.779,402.921 304.779,399.637 305.602,399.637 305.602,406.912 			"/>
			<path style="fill:#CB8F2B;" d="M314.906,403.274c0,2.048-1.668,3.681-3.767,3.681c-2.11,0-3.777-1.633-3.777-3.681
				c0-2.059,1.667-3.659,3.777-3.659C313.238,399.615,314.906,401.227,314.906,403.274 M308.195,403.274
				c0,1.602,1.338,2.879,2.944,2.879c1.605,0,2.923-1.277,2.923-2.879c0-1.601-1.318-2.869-2.923-2.869
				C309.533,400.405,308.195,401.674,308.195,403.274"/>
			<polygon style="fill:#CB8F2B;" points="323.191,406.912 323.18,400.914 320.556,406.143 320.062,406.143 317.447,400.914 
				317.447,406.912 316.665,406.912 316.665,399.637 317.684,399.637 320.319,404.875 322.943,399.637 323.953,399.637 
				323.953,406.912 			"/>
			<polygon style="fill:#CB8F2B;" points="327.224,400.437 327.224,402.828 330.858,402.828 330.858,403.627 327.224,403.627 
				327.224,406.123 331.424,406.123 331.424,406.913 326.401,406.913 326.401,399.636 331.29,399.636 331.29,400.437 			"/>
			<polygon style="fill:#CB8F2B;" points="337.259,400.437 337.259,402.994 340.625,402.994 340.625,403.794 337.259,403.794 
				337.259,406.913 336.435,406.913 336.435,399.636 341.016,399.636 341.016,400.437 			"/>
			<path style="fill:#CB8F2B;" d="M348.375,403.919c0,1.893-1.132,3.035-3.016,3.035c-1.894,0-3.036-1.143-3.036-3.035v-4.283h0.823
				v4.283c0,1.413,0.844,2.234,2.213,2.234c1.369,0,2.192-0.821,2.192-2.234v-4.283h0.824V403.919z"/>
			<path style="fill:#CB8F2B;" d="M353.869,404.594c-0.153,0.011-0.318,0.022-0.483,0.022h-1.914v2.297h-0.824v-7.277h2.738
				c1.802,0,2.841,0.895,2.841,2.443c0,1.206-0.576,2.016-1.616,2.359l1.688,2.475h-0.937L353.869,404.594z M353.386,403.814
				c1.307,0,2.049-0.582,2.049-1.715c0-1.102-0.742-1.663-2.049-1.663h-1.914v3.378H353.386z"/>
			<polygon style="fill:#CB8F2B;" points="363.492,406.912 359.17,401.07 359.17,406.912 358.346,406.912 358.346,399.637 
				359.2,399.637 363.523,405.488 363.523,399.637 364.337,399.637 364.337,406.912 			"/>
			<rect x="366.785" y="399.637" style="fill:#CB8F2B;" width="0.824" height="7.275"/>
			<path style="fill:#CB8F2B;" d="M374.475,400.28l-0.351,0.78c-0.648-0.437-1.41-0.614-1.986-0.614
				c-0.926,0-1.533,0.354-1.533,0.968c0,1.87,4.055,0.894,4.045,3.534c0,1.217-1.061,1.995-2.604,1.995
				c-1.049,0-2.079-0.457-2.757-1.111l0.369-0.748c0.669,0.654,1.585,1.027,2.398,1.027c1.039,0,1.688-0.426,1.688-1.122
				c0.011-1.912-4.045-0.895-4.045-3.503c0-1.144,0.999-1.882,2.491-1.882C373.022,399.604,373.877,399.876,374.475,400.28"/>
			<polygon style="fill:#CB8F2B;" points="381.761,406.912 381.761,403.711 377.417,403.711 377.417,406.912 376.594,406.912 
				376.594,399.637 377.417,399.637 377.417,402.921 381.761,402.921 381.761,399.637 382.584,399.637 382.584,406.912 			"/>
			<rect x="385.022" y="399.637" style="fill:#CB8F2B;" width="0.824" height="7.275"/>
			<polygon style="fill:#CB8F2B;" points="393.432,406.912 389.109,401.07 389.109,406.912 388.285,406.912 388.285,399.637 
				389.14,399.637 393.463,405.488 393.463,399.637 394.275,399.637 394.275,406.912 			"/>
			<path style="fill:#CB8F2B;" d="M402.478,403.357v2.641c-0.709,0.571-1.708,0.957-2.676,0.957c-2.089,0-3.757-1.633-3.757-3.681
				s1.678-3.659,3.798-3.659c0.999,0,1.967,0.386,2.656,0.998l-0.474,0.623c-0.587-0.529-1.379-0.842-2.183-0.842
				c-1.646,0-2.964,1.279-2.964,2.88c0,1.61,1.327,2.891,2.975,2.891c0.648,0,1.338-0.229,1.894-0.614v-2.193H402.478z"/>
			<path style="fill:#CB8F2B;" d="M394.125,281.04l-1.915-1.276l-36.3-24.2l-4.41-2.94l-0.444-0.297l-0.445,0.297l-4.41,2.94
				l-36.3,24.2l-1.914,1.276l-1.025,0.684v2.256v1.276v24.201v2.94v28.416h2.939v-2.94v-2.777v-22.698h11.269v22.698v5.718h2.939
				v-5.718v-22.698h11.269v22.698v2.777v2.94h2.939v-2.94v-25.476v-2.94h-14.208v-11.269h53.894v11.269h-14.208v2.94v25.476v2.94
				h2.939v-2.94v-2.777v-22.698h11.269v22.698v5.718h2.939v-5.718v-22.698h11.269v22.698v5.718h2.939v-28.416v-2.94v-24.201v-1.276
				v-2.256L394.125,281.04z M380.941,309.456v-14.208h-59.772v14.208H309.9v-25.477v-0.683l3.385-2.257l37.77-25.18l37.77,25.18
				l3.385,2.257v0.683v25.477H380.941z"/>
		</g>
	</g>
</g>
</svg>
